<svg width="20" height="20" viewBox="0 0 20 20" fill="none" xmlns="http://www.w3.org/2000/svg">
<path d="M5 18.3333H17.5V16.6667H5.01C4.625 16.6567 4.16667 16.5042 4.16667 15.8333C4.16667 15.1625 4.625 15.01 5.01 15H17.5V3.33334C17.5 2.41417 16.7525 1.66667 15.8333 1.66667H5C3.995 1.66667 2.5 2.33251 2.5 4.16667V15.8333C2.5 17.6675 3.995 18.3333 5 18.3333ZM4.16667 6.66667V4.16667C4.16667 3.49584 4.625 3.34334 5 3.33334H15.8333V13.3333H4.16667V6.66667Z" fill="#BAB9B9"/>
<path d="M6.66666 5H14.1667V6.66667H6.66666V5Z" fill="#BAB9B9"/>
</svg>
