<svg width="17" height="17" viewBox="0 0 17 17" fill="none" xmlns="http://www.w3.org/2000/svg">
<path d="M11.3333 1.41666H5.66666C3.32279 1.41666 1.41666 3.32278 1.41666 5.66666V14.1667C1.41666 14.3545 1.49129 14.5347 1.62413 14.6675C1.75697 14.8004 1.93714 14.875 2.125 14.875H11.3333C13.6772 14.875 15.5833 12.9689 15.5833 10.625V5.66666C15.5833 3.32278 13.6772 1.41666 11.3333 1.41666ZM14.1667 10.625C14.1667 12.1876 12.8959 13.4583 11.3333 13.4583H2.83333V5.66666C2.83333 4.10407 4.10408 2.83332 5.66666 2.83332H11.3333C12.8959 2.83332 14.1667 4.10407 14.1667 5.66666V10.625Z" fill="#1D1D1D"/>
<path d="M6.72916 9.20834C7.31597 9.20834 7.79166 8.73265 7.79166 8.14584C7.79166 7.55904 7.31597 7.08334 6.72916 7.08334C6.14236 7.08334 5.66666 7.55904 5.66666 8.14584C5.66666 8.73265 6.14236 9.20834 6.72916 9.20834Z" fill="#1D1D1D"/>
<path d="M10.2708 9.20834C10.8576 9.20834 11.3333 8.73265 11.3333 8.14584C11.3333 7.55904 10.8576 7.08334 10.2708 7.08334C9.68403 7.08334 9.20834 7.55904 9.20834 8.14584C9.20834 8.73265 9.68403 9.20834 10.2708 9.20834Z" fill="#1D1D1D"/>
</svg>
