<svg width="16" height="16" viewBox="0 0 16 16" fill="none" xmlns="http://www.w3.org/2000/svg">
<g clip-path="url(#clip0_226_523)">
<path d="M15.9916 8.14968C15.9916 7.49417 15.9372 7.01582 15.8194 6.51976H8.15942V9.47842H12.6556C12.565 10.2137 12.0755 11.321 10.9877 12.065L10.9724 12.1641L13.3944 13.9976L13.5622 14.0139C15.1032 12.6231 15.9916 10.5769 15.9916 8.14968Z" fill="#4285F4"/>
<path d="M8.1594 15.945C10.3622 15.945 12.2114 15.2363 13.5622 14.0139L10.9877 12.065C10.2987 12.5345 9.37409 12.8623 8.1594 12.8623C6.00194 12.8623 4.17082 11.4716 3.51807 9.54932L3.42239 9.55726L0.904028 11.4618L0.871094 11.5513C2.21271 14.1556 4.96848 15.945 8.1594 15.945Z" fill="#34A853"/>
<path d="M3.51793 9.54932C3.3457 9.05325 3.24602 8.52171 3.24602 7.97252C3.24602 7.42327 3.3457 6.89179 3.50887 6.39573L3.50431 6.29008L0.954384 4.35493L0.870955 4.39371C0.318012 5.47445 0.000732422 6.68806 0.000732422 7.97252C0.000732422 9.25698 0.318012 10.4705 0.870955 11.5513L3.51793 9.54932Z" fill="#FBBC05"/>
<path d="M8.1594 3.08269C9.69137 3.08269 10.7248 3.72934 11.314 4.26974L13.6165 2.07285C12.2024 0.788397 10.3622 0 8.1594 0C4.96848 0 2.21271 1.78937 0.871094 4.39371L3.50901 6.39573C4.17082 4.47347 6.00194 3.08269 8.1594 3.08269Z" fill="#EB4335"/>
</g>
<defs>
<clipPath id="clip0_226_523">
<rect width="16" height="16" fill="white"/>
</clipPath>
</defs>
</svg>
