<svg width="20" height="20" viewBox="0 0 20 20" fill="none" xmlns="http://www.w3.org/2000/svg">
<path d="M10 1.25C6.54961 1.25 3.75 3.76992 3.75 6.875C3.75 11.875 10 18.75 10 18.75C10 18.75 16.25 11.875 16.25 6.875C16.25 3.76992 13.4504 1.25 10 1.25ZM10 10C9.50555 10 9.0222 9.85338 8.61107 9.57867C8.19995 9.30397 7.87952 8.91352 7.6903 8.45671C7.50108 7.99989 7.45157 7.49723 7.54804 7.01227C7.6445 6.52732 7.8826 6.08186 8.23223 5.73223C8.58186 5.3826 9.02732 5.1445 9.51227 5.04804C9.99723 4.95157 10.4999 5.00108 10.9567 5.1903C11.4135 5.37952 11.804 5.69995 12.0787 6.11107C12.3534 6.5222 12.5 7.00555 12.5 7.5C12.4993 8.16282 12.2357 8.79828 11.767 9.26697C11.2983 9.73565 10.6628 9.99928 10 10Z" fill="#BAB9B9"/>
</svg>
