<svg width="30" height="15" viewBox="0 0 30 15" fill="none" xmlns="http://www.w3.org/2000/svg">
<path d="M10.1668 4.58319L13.031 7.44734L13.0396 7.43882L15.0368 9.436L15.0453 9.44453L17.9622 12.3613C20.647 15.0463 25 15.0463 27.6848 12.3613C30.3698 9.67649 30.3698 5.32352 27.6848 2.63865C25 -0.0462166 20.647 -0.0462166 17.9622 2.63865L16.9813 3.61956L18.9258 5.56414L19.9067 4.58319C21.5175 2.97228 24.1294 2.97228 25.7403 4.58319C27.3513 6.19417 27.3513 8.80584 25.7403 10.4168C24.1294 12.0277 21.5175 12.0277 19.9067 10.4168L17.0573 7.56752L17.0487 7.57618L12.1114 2.63865C9.4265 -0.0462166 5.0735 -0.0462166 2.38864 2.63865C-0.296215 5.32352 -0.296215 9.67649 2.38864 12.3613C5.0735 15.0463 9.4265 15.0463 12.1114 12.3613L13.0921 11.3805L11.1476 9.436L10.1668 10.4168C8.5559 12.0277 5.94409 12.0277 4.33318 10.4168C2.72227 8.80584 2.72227 6.19417 4.33318 4.58319C5.94409 2.97228 8.5559 2.97228 10.1668 4.58319Z" fill="url(#paint0_linear_4_62)"/>
<defs>
<linearGradient id="paint0_linear_4_62" x1="35" y1="4.5" x2="-3.5" y2="8" gradientUnits="userSpaceOnUse">
<stop stop-color="#1D1D1D"/>
<stop offset="1" stop-color="#1D1D1D"/>
</linearGradient>
</defs>
</svg>
