<svg width="94" height="29" viewBox="0 0 94 29" fill="none" xmlns="http://www.w3.org/2000/svg">
<path d="M26.5234 24.7266V24.6875C26.5234 24.1198 26.5872 23.6068 26.7148 23.1484C26.8424 22.6875 27.0052 22.2839 27.2031 21.9375C27.401 21.5911 27.6094 21.3047 27.8281 21.0781C28.0469 20.849 28.2487 20.6836 28.4336 20.582L28.5859 21.0586C28.4323 21.1758 28.276 21.3372 28.1172 21.543C27.9609 21.7487 27.8164 22.0013 27.6836 22.3008C27.5534 22.6003 27.4479 22.9479 27.3672 23.3438C27.2865 23.7396 27.2461 24.1849 27.2461 24.6797V24.7344C27.2461 25.2292 27.2865 25.6758 27.3672 26.0742C27.4479 26.4701 27.5534 26.819 27.6836 27.1211C27.8164 27.4232 27.9609 27.6797 28.1172 27.8906C28.276 28.1042 28.4323 28.2734 28.5859 28.3984L28.4336 28.8359C28.2487 28.7344 28.0469 28.569 27.8281 28.3398C27.6094 28.1133 27.401 27.8268 27.2031 27.4805C27.0052 27.1367 26.8424 26.7344 26.7148 26.2734C26.5872 25.8125 26.5234 25.2969 26.5234 24.7266ZM31.5898 21.2812V27H30.8672V22.1836L29.4102 22.7148V22.0625L31.4766 21.2812H31.5898ZM37.2852 23.7031V24.5703C37.2852 25.0365 37.2435 25.4297 37.1602 25.75C37.0768 26.0703 36.957 26.3281 36.8008 26.5234C36.6445 26.7188 36.4557 26.8607 36.2344 26.9492C36.0156 27.0352 35.7682 27.0781 35.4922 27.0781C35.2734 27.0781 35.0716 27.0508 34.8867 26.9961C34.7018 26.9414 34.5352 26.8542 34.3867 26.7344C34.2409 26.612 34.1159 26.4531 34.0117 26.2578C33.9076 26.0625 33.8281 25.8255 33.7734 25.5469C33.7188 25.2682 33.6914 24.9427 33.6914 24.5703V23.7031C33.6914 23.237 33.7331 22.8464 33.8164 22.5312C33.9023 22.2161 34.0234 21.9635 34.1797 21.7734C34.3359 21.5807 34.5234 21.4427 34.7422 21.3594C34.9635 21.276 35.2109 21.2344 35.4844 21.2344C35.7057 21.2344 35.9089 21.2617 36.0938 21.3164C36.2812 21.3685 36.4479 21.4531 36.5938 21.5703C36.7396 21.6849 36.8633 21.8385 36.9648 22.0312C37.069 22.2214 37.1484 22.4544 37.2031 22.7305C37.2578 23.0065 37.2852 23.3307 37.2852 23.7031ZM36.5586 24.6875V23.582C36.5586 23.3268 36.543 23.1029 36.5117 22.9102C36.4831 22.7148 36.4401 22.5482 36.3828 22.4102C36.3255 22.2721 36.2526 22.1602 36.1641 22.0742C36.0781 21.9883 35.9779 21.9258 35.8633 21.8867C35.7513 21.8451 35.625 21.8242 35.4844 21.8242C35.3125 21.8242 35.1602 21.8568 35.0273 21.9219C34.8945 21.9844 34.7826 22.0846 34.6914 22.2227C34.6029 22.3607 34.5352 22.5417 34.4883 22.7656C34.4414 22.9896 34.418 23.2617 34.418 23.582V24.6875C34.418 24.9427 34.4323 25.168 34.4609 25.3633C34.4922 25.5586 34.5378 25.7279 34.5977 25.8711C34.6576 26.0117 34.7305 26.1276 34.8164 26.2188C34.9023 26.3099 35.0013 26.3776 35.1133 26.4219C35.2279 26.4635 35.3542 26.4844 35.4922 26.4844C35.6693 26.4844 35.8242 26.4505 35.957 26.3828C36.0898 26.3151 36.2005 26.2096 36.2891 26.0664C36.3802 25.9206 36.4479 25.7344 36.4922 25.5078C36.5365 25.2786 36.5586 25.0052 36.5586 24.6875ZM40.5898 21.2812V27H39.8672V22.1836L38.4102 22.7148V22.0625L40.4766 21.2812H40.5898ZM46.0625 26.3477L47.2188 22.7734H47.957L46.4375 27H45.9531L46.0625 26.3477ZM45.0977 22.7734L46.2891 26.3672L46.3711 27H45.8867L44.3555 22.7734H45.0977ZM48.3984 24.9336V24.8438C48.3984 24.5391 48.4427 24.2565 48.5312 23.9961C48.6198 23.7331 48.7474 23.5052 48.9141 23.3125C49.0807 23.1172 49.2826 22.9661 49.5195 22.8594C49.7565 22.75 50.0221 22.6953 50.3164 22.6953C50.6133 22.6953 50.8802 22.75 51.1172 22.8594C51.3568 22.9661 51.5599 23.1172 51.7266 23.3125C51.8958 23.5052 52.0247 23.7331 52.1133 23.9961C52.2018 24.2565 52.2461 24.5391 52.2461 24.8438V24.9336C52.2461 25.2383 52.2018 25.5208 52.1133 25.7812C52.0247 26.0417 51.8958 26.2695 51.7266 26.4648C51.5599 26.6576 51.3581 26.8086 51.1211 26.918C50.8867 27.0247 50.6211 27.0781 50.3242 27.0781C50.0273 27.0781 49.7604 27.0247 49.5234 26.918C49.2865 26.8086 49.0833 26.6576 48.9141 26.4648C48.7474 26.2695 48.6198 26.0417 48.5312 25.7812C48.4427 25.5208 48.3984 25.2383 48.3984 24.9336ZM49.1211 24.8438V24.9336C49.1211 25.1445 49.1458 25.3438 49.1953 25.5312C49.2448 25.7161 49.319 25.8802 49.418 26.0234C49.5195 26.1667 49.6458 26.2799 49.7969 26.3633C49.9479 26.444 50.1237 26.4844 50.3242 26.4844C50.5221 26.4844 50.6953 26.444 50.8438 26.3633C50.9948 26.2799 51.1198 26.1667 51.2188 26.0234C51.3177 25.8802 51.3919 25.7161 51.4414 25.5312C51.4935 25.3438 51.5195 25.1445 51.5195 24.9336V24.8438C51.5195 24.6354 51.4935 24.4388 51.4414 24.2539C51.3919 24.0664 51.3164 23.901 51.2148 23.7578C51.1159 23.612 50.9909 23.4974 50.8398 23.4141C50.6914 23.3307 50.5169 23.2891 50.3164 23.2891C50.1185 23.2891 49.944 23.3307 49.793 23.4141C49.6445 23.4974 49.5195 23.612 49.418 23.7578C49.319 23.901 49.2448 24.0664 49.1953 24.2539C49.1458 24.4388 49.1211 24.6354 49.1211 24.8438ZM54.9219 22.7734V23.3281H52.6367V22.7734H54.9219ZM53.4102 21.7461H54.1328V25.9531C54.1328 26.0964 54.1549 26.2044 54.1992 26.2773C54.2435 26.3503 54.3008 26.3984 54.3711 26.4219C54.4414 26.4453 54.5169 26.457 54.5977 26.457C54.6576 26.457 54.7201 26.4518 54.7852 26.4414C54.8529 26.4284 54.9036 26.418 54.9375 26.4102L54.9414 27C54.8841 27.0182 54.8086 27.0352 54.7148 27.0508C54.6237 27.069 54.513 27.0781 54.3828 27.0781C54.2057 27.0781 54.043 27.043 53.8945 26.9727C53.7461 26.9023 53.6276 26.7852 53.5391 26.6211C53.4531 26.4544 53.4102 26.2305 53.4102 25.9492V21.7461ZM57.5234 27.0781C57.2292 27.0781 56.9622 27.0286 56.7227 26.9297C56.4857 26.8281 56.2812 26.6862 56.1094 26.5039C55.9401 26.3216 55.8099 26.1055 55.7188 25.8555C55.6276 25.6055 55.582 25.332 55.582 25.0352V24.8711C55.582 24.5273 55.6328 24.2214 55.7344 23.9531C55.8359 23.6823 55.974 23.4531 56.1484 23.2656C56.3229 23.0781 56.5208 22.9362 56.7422 22.8398C56.9635 22.7435 57.1927 22.6953 57.4297 22.6953C57.7318 22.6953 57.9922 22.7474 58.2109 22.8516C58.4323 22.9557 58.6133 23.1016 58.7539 23.2891C58.8945 23.474 58.9987 23.6927 59.0664 23.9453C59.1341 24.1953 59.168 24.4688 59.168 24.7656V25.0898H56.0117V24.5H58.4453V24.4453C58.4349 24.2578 58.3958 24.0755 58.3281 23.8984C58.263 23.7214 58.1589 23.5755 58.0156 23.4609C57.8724 23.3464 57.6771 23.2891 57.4297 23.2891C57.2656 23.2891 57.1146 23.3242 56.9766 23.3945C56.8385 23.4622 56.7201 23.5638 56.6211 23.6992C56.5221 23.8346 56.4453 24 56.3906 24.1953C56.3359 24.3906 56.3086 24.6159 56.3086 24.8711V25.0352C56.3086 25.2357 56.3359 25.4245 56.3906 25.6016C56.4479 25.776 56.5299 25.9297 56.6367 26.0625C56.7461 26.1953 56.8776 26.2995 57.0312 26.375C57.1875 26.4505 57.3646 26.4883 57.5625 26.4883C57.8177 26.4883 58.0339 26.4362 58.2109 26.332C58.388 26.2279 58.543 26.0885 58.6758 25.9141L59.1133 26.2617C59.0221 26.3997 58.9062 26.5312 58.7656 26.6562C58.625 26.7812 58.4518 26.8828 58.2461 26.9609C58.043 27.0391 57.8021 27.0781 57.5234 27.0781ZM62.4727 25.8789C62.4727 25.7747 62.4492 25.6784 62.4023 25.5898C62.3581 25.4987 62.2656 25.4167 62.125 25.3438C61.987 25.2682 61.7786 25.2031 61.5 25.1484C61.2656 25.099 61.0534 25.0404 60.8633 24.9727C60.6758 24.9049 60.5156 24.8229 60.3828 24.7266C60.2526 24.6302 60.1523 24.5169 60.082 24.3867C60.0117 24.2565 59.9766 24.1042 59.9766 23.9297C59.9766 23.763 60.013 23.6055 60.0859 23.457C60.1615 23.3086 60.2669 23.1771 60.4023 23.0625C60.5404 22.9479 60.7057 22.8581 60.8984 22.793C61.0911 22.7279 61.306 22.6953 61.543 22.6953C61.8815 22.6953 62.1706 22.7552 62.4102 22.875C62.6497 22.9948 62.8333 23.1549 62.9609 23.3555C63.0885 23.5534 63.1523 23.7734 63.1523 24.0156H62.4297C62.4297 23.8984 62.3945 23.7852 62.3242 23.6758C62.2565 23.5638 62.1562 23.4714 62.0234 23.3984C61.8932 23.3255 61.7331 23.2891 61.543 23.2891C61.3424 23.2891 61.1797 23.3203 61.0547 23.3828C60.9323 23.4427 60.8424 23.5195 60.7852 23.6133C60.7305 23.707 60.7031 23.806 60.7031 23.9102C60.7031 23.9883 60.7161 24.0586 60.7422 24.1211C60.7708 24.181 60.8203 24.237 60.8906 24.2891C60.9609 24.3385 61.0599 24.3854 61.1875 24.4297C61.3151 24.474 61.4779 24.5182 61.6758 24.5625C62.0221 24.6406 62.3073 24.7344 62.5312 24.8438C62.7552 24.9531 62.9219 25.0872 63.0312 25.2461C63.1406 25.4049 63.1953 25.5977 63.1953 25.8242C63.1953 26.0091 63.1562 26.1784 63.0781 26.332C63.0026 26.4857 62.8919 26.6185 62.7461 26.7305C62.6029 26.8398 62.431 26.9258 62.2305 26.9883C62.0326 27.0482 61.8099 27.0781 61.5625 27.0781C61.1901 27.0781 60.875 27.0117 60.6172 26.8789C60.3594 26.7461 60.1641 26.5742 60.0312 26.3633C59.8984 26.1523 59.832 25.9297 59.832 25.6953H60.5586C60.569 25.8932 60.6263 26.0508 60.7305 26.168C60.8346 26.2826 60.9622 26.3646 61.1133 26.4141C61.2643 26.4609 61.4141 26.4844 61.5625 26.4844C61.7604 26.4844 61.9258 26.4583 62.0586 26.4062C62.194 26.3542 62.2969 26.2826 62.3672 26.1914C62.4375 26.1003 62.4727 25.9961 62.4727 25.8789ZM65.8086 24.6875V24.7266C65.8086 25.2969 65.7448 25.8125 65.6172 26.2734C65.4896 26.7344 65.3268 27.1367 65.1289 27.4805C64.931 27.8268 64.7227 28.1133 64.5039 28.3398C64.2852 28.569 64.0833 28.7344 63.8984 28.8359L63.7461 28.3984C63.8997 28.2812 64.0547 28.1172 64.2109 27.9062C64.3672 27.6979 64.5117 27.4401 64.6445 27.1328C64.7773 26.8281 64.8841 26.4766 64.9648 26.0781C65.0456 25.6771 65.0859 25.2292 65.0859 24.7344V24.6797C65.0859 24.1849 65.043 23.7383 64.957 23.3398C64.8711 22.9388 64.7591 22.5859 64.6211 22.2812C64.4857 21.9766 64.3398 21.7201 64.1836 21.5117C64.0299 21.3008 63.8841 21.138 63.7461 21.0234L63.8984 20.582C64.0833 20.6836 64.2852 20.849 64.5039 21.0781C64.7227 21.3047 64.931 21.5911 65.1289 21.9375C65.3268 22.2839 65.4896 22.6875 65.6172 23.1484C65.7448 23.6068 65.8086 24.1198 65.8086 24.6875Z" fill="#AAA8A8"/>
<path d="M8.60999 2.62424C8.64171 2.54687 8.69573 2.48067 8.76518 2.43409C8.83463 2.3875 8.91636 2.36263 8.99999 2.36263C9.08362 2.36263 9.16535 2.3875 9.2348 2.43409C9.30425 2.48067 9.35827 2.54687 9.38999 2.62424L10.9837 6.45749C11.0136 6.52922 11.0626 6.59133 11.1255 6.63698C11.1883 6.68263 11.2626 6.71006 11.34 6.71624L15.4785 7.04774C15.8527 7.07774 16.0042 7.54499 15.7192 7.78874L12.5662 10.4902C12.5073 10.5406 12.4634 10.6063 12.4394 10.68C12.4153 10.7536 12.412 10.8325 12.4297 10.908L13.3935 14.9467C13.4129 15.0278 13.4078 15.1127 13.3789 15.1909C13.35 15.269 13.2986 15.3368 13.2312 15.3858C13.1638 15.4348 13.0834 15.4626 13.0001 15.4659C12.9169 15.4692 12.8345 15.4477 12.7635 15.4042L9.21974 13.2405C9.15354 13.2001 9.07752 13.1788 8.99999 13.1788C8.92247 13.1788 8.84644 13.2001 8.78024 13.2405L5.23649 15.405C5.16543 15.4485 5.08308 15.4699 4.99983 15.4667C4.91659 15.4634 4.83618 15.4355 4.76877 15.3866C4.70135 15.3376 4.64996 15.2698 4.62108 15.1916C4.5922 15.1135 4.58712 15.0285 4.60649 14.9475L5.57024 10.908C5.58811 10.8325 5.58483 10.7536 5.56075 10.6799C5.53666 10.6062 5.49272 10.5406 5.43374 10.4902L2.28074 7.78874C2.2176 7.73445 2.17192 7.6627 2.14945 7.58252C2.12698 7.50234 2.12872 7.4173 2.15445 7.3381C2.18018 7.25891 2.22876 7.18908 2.29407 7.13742C2.35937 7.08576 2.4385 7.05456 2.52149 7.04774L6.65999 6.71624C6.73743 6.71006 6.81166 6.68263 6.87451 6.63698C6.93737 6.59133 6.98641 6.52922 7.01624 6.45749L8.60999 2.62499V2.62424Z" fill="#F3DF2C"/>
<path d="M27.61 2.62424C27.6417 2.54687 27.6957 2.48067 27.7652 2.43409C27.8346 2.3875 27.9164 2.36263 28 2.36263C28.0836 2.36263 28.1654 2.3875 28.2348 2.43409C28.3042 2.48067 28.3583 2.54687 28.39 2.62424L29.9837 6.45749C30.0136 6.52922 30.0626 6.59133 30.1255 6.63698C30.1883 6.68263 30.2626 6.71006 30.34 6.71624L34.4785 7.04774C34.8527 7.07774 35.0042 7.54499 34.7192 7.78874L31.5662 10.4902C31.5073 10.5406 31.4634 10.6063 31.4394 10.68C31.4153 10.7536 31.412 10.8325 31.4297 10.908L32.3935 14.9467C32.4129 15.0278 32.4078 15.1127 32.3789 15.1909C32.35 15.269 32.2986 15.3368 32.2312 15.3858C32.1638 15.4348 32.0834 15.4626 32.0001 15.4659C31.9169 15.4692 31.8345 15.4477 31.7635 15.4042L28.2197 13.2405C28.1535 13.2001 28.0775 13.1788 28 13.1788C27.9225 13.1788 27.8464 13.2001 27.7802 13.2405L24.2365 15.405C24.1654 15.4485 24.0831 15.4699 23.9998 15.4667C23.9166 15.4634 23.8362 15.4355 23.7688 15.3866C23.7014 15.3376 23.65 15.2698 23.6211 15.1916C23.5922 15.1135 23.5871 15.0285 23.6065 14.9475L24.5702 10.908C24.5881 10.8325 24.5848 10.7536 24.5607 10.6799C24.5367 10.6062 24.4927 10.5406 24.4337 10.4902L21.2807 7.78874C21.2176 7.73445 21.1719 7.6627 21.1495 7.58252C21.127 7.50234 21.1287 7.4173 21.1545 7.3381C21.1802 7.25891 21.2288 7.18908 21.2941 7.13742C21.3594 7.08576 21.4385 7.05456 21.5215 7.04774L25.66 6.71624C25.7374 6.71006 25.8117 6.68263 25.8745 6.63698C25.9374 6.59133 25.9864 6.52922 26.0162 6.45749L27.61 2.62499V2.62424Z" fill="#F3DF2C"/>
<path d="M46.61 2.62424C46.6417 2.54687 46.6957 2.48067 46.7652 2.43409C46.8346 2.3875 46.9164 2.36263 47 2.36263C47.0836 2.36263 47.1654 2.3875 47.2348 2.43409C47.3042 2.48067 47.3583 2.54687 47.39 2.62424L48.9837 6.45749C49.0136 6.52922 49.0626 6.59133 49.1255 6.63698C49.1883 6.68263 49.2626 6.71006 49.34 6.71624L53.4785 7.04774C53.8527 7.07774 54.0042 7.54499 53.7192 7.78874L50.5662 10.4902C50.5073 10.5406 50.4634 10.6063 50.4394 10.68C50.4153 10.7536 50.412 10.8325 50.4297 10.908L51.3935 14.9467C51.4129 15.0278 51.4078 15.1127 51.3789 15.1909C51.35 15.269 51.2986 15.3368 51.2312 15.3858C51.1638 15.4348 51.0834 15.4626 51.0001 15.4659C50.9169 15.4692 50.8345 15.4477 50.7635 15.4042L47.2197 13.2405C47.1535 13.2001 47.0775 13.1788 47 13.1788C46.9225 13.1788 46.8464 13.2001 46.7802 13.2405L43.2365 15.405C43.1654 15.4485 43.0831 15.4699 42.9998 15.4667C42.9166 15.4634 42.8362 15.4355 42.7688 15.3866C42.7014 15.3376 42.65 15.2698 42.6211 15.1916C42.5922 15.1135 42.5871 15.0285 42.6065 14.9475L43.5702 10.908C43.5881 10.8325 43.5848 10.7536 43.5607 10.6799C43.5367 10.6062 43.4927 10.5406 43.4337 10.4902L40.2807 7.78874C40.2176 7.73445 40.1719 7.6627 40.1495 7.58252C40.127 7.50234 40.1287 7.4173 40.1545 7.3381C40.1802 7.25891 40.2288 7.18908 40.2941 7.13742C40.3594 7.08576 40.4385 7.05456 40.5215 7.04774L44.66 6.71624C44.7374 6.71006 44.8117 6.68263 44.8745 6.63698C44.9374 6.59133 44.9864 6.52922 45.0162 6.45749L46.61 2.62499V2.62424Z" fill="#F3DF2C"/>
<path d="M65.61 2.62424C65.6417 2.54687 65.6957 2.48067 65.7652 2.43409C65.8346 2.3875 65.9164 2.36263 66 2.36263C66.0836 2.36263 66.1654 2.3875 66.2348 2.43409C66.3042 2.48067 66.3583 2.54687 66.39 2.62424L67.9837 6.45749C68.0136 6.52922 68.0626 6.59133 68.1255 6.63698C68.1883 6.68263 68.2626 6.71006 68.34 6.71624L72.4785 7.04774C72.8527 7.07774 73.0042 7.54499 72.7192 7.78874L69.5662 10.4902C69.5073 10.5406 69.4634 10.6063 69.4394 10.68C69.4153 10.7536 69.412 10.8325 69.4297 10.908L70.3935 14.9467C70.4129 15.0278 70.4078 15.1127 70.3789 15.1909C70.35 15.269 70.2986 15.3368 70.2312 15.3858C70.1638 15.4348 70.0834 15.4626 70.0001 15.4659C69.9169 15.4692 69.8345 15.4477 69.7635 15.4042L66.2197 13.2405C66.1535 13.2001 66.0775 13.1788 66 13.1788C65.9225 13.1788 65.8464 13.2001 65.7802 13.2405L62.2365 15.405C62.1654 15.4485 62.0831 15.4699 61.9998 15.4667C61.9166 15.4634 61.8362 15.4355 61.7688 15.3866C61.7014 15.3376 61.65 15.2698 61.6211 15.1916C61.5922 15.1135 61.5871 15.0285 61.6065 14.9475L62.5702 10.908C62.5881 10.8325 62.5848 10.7536 62.5607 10.6799C62.5367 10.6062 62.4927 10.5406 62.4337 10.4902L59.2807 7.78874C59.2176 7.73445 59.1719 7.6627 59.1495 7.58252C59.127 7.50234 59.1287 7.4173 59.1545 7.3381C59.1802 7.25891 59.2288 7.18908 59.2941 7.13742C59.3594 7.08576 59.4385 7.05456 59.5215 7.04774L63.66 6.71624C63.7374 6.71006 63.8117 6.68263 63.8745 6.63698C63.9374 6.59133 63.9864 6.52922 64.0162 6.45749L65.61 2.62499V2.62424Z" fill="#F3DF2C"/>
<path d="M84.61 2.62424C84.6417 2.54687 84.6957 2.48067 84.7652 2.43409C84.8346 2.3875 84.9164 2.36263 85 2.36263C85.0836 2.36263 85.1654 2.3875 85.2348 2.43409C85.3042 2.48067 85.3583 2.54687 85.39 2.62424L86.9837 6.45749C87.0136 6.52922 87.0626 6.59133 87.1255 6.63698C87.1883 6.68263 87.2626 6.71006 87.34 6.71624L91.4785 7.04774C91.8527 7.07774 92.0042 7.54499 91.7192 7.78874L88.5662 10.4902C88.5073 10.5406 88.4634 10.6063 88.4394 10.68C88.4153 10.7536 88.412 10.8325 88.4297 10.908L89.3935 14.9467C89.4129 15.0278 89.4078 15.1127 89.3789 15.1909C89.35 15.269 89.2986 15.3368 89.2312 15.3858C89.1638 15.4348 89.0834 15.4626 89.0001 15.4659C88.9169 15.4692 88.8345 15.4477 88.7635 15.4042L85.2197 13.2405C85.1535 13.2001 85.0775 13.1788 85 13.1788C84.9225 13.1788 84.8464 13.2001 84.7802 13.2405L81.2365 15.405C81.1654 15.4485 81.0831 15.4699 80.9998 15.4667C80.9166 15.4634 80.8362 15.4355 80.7688 15.3866C80.7014 15.3376 80.65 15.2698 80.6211 15.1916C80.5922 15.1135 80.5871 15.0285 80.6065 14.9475L81.5702 10.908C81.5881 10.8325 81.5848 10.7536 81.5607 10.6799C81.5367 10.6062 81.4927 10.5406 81.4337 10.4902L78.2807 7.78874C78.2176 7.73445 78.1719 7.6627 78.1495 7.58252C78.127 7.50234 78.1287 7.4173 78.1545 7.3381C78.1802 7.25891 78.2288 7.18908 78.2941 7.13742C78.3594 7.08576 78.4385 7.05456 78.5215 7.04774L82.66 6.71624C82.7374 6.71006 82.8117 6.68263 82.8745 6.63698C82.9374 6.59133 82.9864 6.52922 83.0162 6.45749L84.61 2.62499V2.62424Z" fill="#D9D9D9"/>
</svg>
